<?xml version="1.0"?>
<svg xmlns="http://www.w3.org/2000/svg" xmlns:xlink="http://www.w3.org/1999/xlink" version="1.1" id="Layer_1" x="0px" y="0px" viewBox="0 0 493.456 493.456" style="enable-background:new 0 0 493.456 493.456;" xml:space="preserve" width="512px" height="512px" class=""><g><g>
	<g>
		<path d="M246.73,0C110.682,0,0.002,110.68,0.002,246.736c0,136.036,110.68,246.72,246.728,246.72s246.724-110.684,246.724-246.72    C493.454,110.68,382.778,0,246.73,0z M321.138,250.492L210.822,360.804c-2.004,2.008-5.548,2.008-7.556,0l-8.98-8.968    c-2.076-2.084-2.072-5.48,0.004-7.564l94.952-94.94c0.712-0.72,1.116-1.7,1.116-2.732c0-1.016-0.408-2.004-1.116-2.72    l-94.78-94.776c-1-1-1.56-2.344-1.56-3.792c0-1.42,0.556-2.772,1.556-3.764l8.968-8.976c1.004-1,2.352-1.556,3.78-1.556    c1.436-0.008,2.772,0.556,3.776,1.556l110.156,110.152c1.02,1.016,1.572,2.372,1.552,3.936    C322.71,248.116,322.158,249.476,321.138,250.492z" data-original="#000000" class="active-path" data-old_color="#000000" fill="#E2E2E2"/>
	</g>
</g></g> </svg>
